<?xml version="1.0" encoding="UTF-8"?><svg id="Layer_1" xmlns="http://www.w3.org/2000/svg" viewBox="0 0 50 50"><defs><style>.cls-1{fill:#fff;}.cls-2{fill:#21409a;}</style></defs><rect class="cls-2" x="-1.18" y="-.98" width="52.35" height="51.96"/><polygon class="cls-1" points="21.74 16.39 17.1 16.39 11.38 24.03 11.3 24.03 11.3 16.39 7.47 16.39 7.47 33.61 11.3 33.61 11.3 26.04 11.39 26.04 17.38 33.61 22.01 33.61 15.09 24.89 21.74 16.39"/><path class="cls-1" d="m34.2,24.93c-.34-.18-.69-.32-1.05-.44.12-.09.24-.17.35-.27.46-.44.83-.95,1.11-1.55s.42-1.23.42-1.9c0-.83-.23-1.58-.69-2.24s-1.13-1.18-2.01-1.56-1.94-.57-3.18-.57h-5.74v17.21h7.24c1.11,0,2.1-.21,2.96-.63s1.54-1.01,2.03-1.76.74-1.63.74-2.62c0-.9-.2-1.65-.6-2.25s-.92-1.07-1.57-1.41Zm-5.03-5.2c.65,0,1.17.15,1.56.44s.6.75.6,1.37c0,.37-.08.69-.23.98s-.37.52-.65.68-.63.25-1.03.25h-2.2v-3.72h1.95Zm2.81,9.99c-.4.36-.91.54-1.54.54h-3.22v-3.94h3.05c.69,0,1.24.17,1.67.5s.64.8.64,1.4c0,.63-.2,1.13-.6,1.49Z"/><rect class="cls-1" x="38.71" y="16.39" width="3.82" height="17.21"/></svg>